<svg width="22" height="21" viewBox="0 0 22 21" fill="none" xmlns="http://www.w3.org/2000/svg">
<path d="M0.569903 7.38558C0.230566 7.62311 0.14804 8.09076 0.385576 8.4301C0.623112 8.76943 1.09076 8.85196 1.4301 8.61442L0.569903 7.38558ZM11 1L11.4301 0.385576C11.1719 0.204808 10.8281 0.204808 10.5699 0.385576L11 1ZM20.5699 8.61442C20.9092 8.85196 21.3769 8.76943 21.6144 8.4301C21.852 8.09076 21.7694 7.62311 21.4301 7.38558L20.5699 8.61442ZM13.25 19C13.25 19.4142 13.5858 19.75 14 19.75C14.4142 19.75 14.75 19.4142 14.75 19H13.25ZM7.25 19C7.25 19.4142 7.58579 19.75 8 19.75C8.41421 19.75 8.75 19.4142 8.75 19H7.25ZM2.75 8V7.25H1.25V8H2.75ZM8 20.1427H8.75V18.6427H8V20.1427ZM20.75 8V7.25H19.25V8H20.75ZM14 18.6427H13.25V20.1427H14V18.6427ZM1.4301 8.61442L11.4301 1.61442L10.5699 0.385576L0.569903 7.38558L1.4301 8.61442ZM10.5699 1.61442L20.5699 8.61442L21.4301 7.38558L11.4301 0.385576L10.5699 1.61442ZM14.75 19V13H13.25V19H14.75ZM14.75 13C14.75 11.4808 13.5192 10.25 12 10.25V11.75C12.6908 11.75 13.25 12.3092 13.25 13H14.75ZM12 10.25H10V11.75H12V10.25ZM10 10.25C8.48079 10.25 7.25 11.4808 7.25 13H8.75C8.75 12.3092 9.30921 11.75 10 11.75V10.25ZM7.25 13V19H8.75V13H7.25ZM1.25 8V17.3919H2.75V8H1.25ZM1.25 17.3919C1.25 18.9112 2.48159 20.1427 4.00083 20.1427V18.6427C3.31002 18.6427 2.75 18.0827 2.75 17.3919H1.25ZM4.00083 20.1427H8V18.6427H4.00083V20.1427ZM19.25 8V17.3919H20.75V8H19.25ZM19.25 17.3919C19.25 18.0827 18.69 18.6427 17.9992 18.6427V20.1427C19.5184 20.1427 20.75 18.9112 20.75 17.3919H19.25ZM17.9992 18.6427H14V20.1427H17.9992V18.6427Z" fill="#fff"/>
</svg>
