<svg width="40" height="40" viewBox="0 0 40 40" fill="none" xmlns="http://www.w3.org/2000/svg">
<path d="M0 12C0 5.37258 5.37258 0 12 0H28C34.6274 0 40 5.37258 40 12V28C40 34.6274 34.6274 40 28 40H12C5.37258 40 0 34.6274 0 28V12Z" fill="white"/>
<path fill-rule="evenodd" clip-rule="evenodd" d="M26.0025 29.0037H13.9975C12.8925 29.0037 11.9967 28.1079 11.9967 27.0029V12.9971C11.9967 11.892 12.8925 10.9962 13.9975 10.9962H26.0025C27.1076 10.9962 28.0034 11.892 28.0034 12.9971V27.0029C28.0034 28.1079 27.1076 29.0037 26.0025 29.0037Z" stroke="#323854" stroke-width="1.5" stroke-linecap="round" stroke-linejoin="round"/>
<path d="M15.9983 15.9983H24.0016" stroke="#323854" stroke-width="1.5" stroke-linecap="round" stroke-linejoin="round"/>
<path d="M15.9983 24.0017H17.9991" stroke="#323854" stroke-width="1.5" stroke-linecap="round" stroke-linejoin="round"/>
<path d="M24.6129 23.5295L22.6671 25.4753L21.5006 24.3078" stroke="#323854" stroke-width="1.5" stroke-linecap="round" stroke-linejoin="round"/>
<path d="M15.9983 20H24.0016" stroke="#323854" stroke-width="1.5" stroke-linecap="round" stroke-linejoin="round"/>
</svg>
