
<svg width="20" height="18" viewBox="0 0 20 18" fill="none" xmlns="http://www.w3.org/2000/svg">
<path fill-rule="evenodd" clip-rule="evenodd" d="M7.47054 0.25C7.99716 0.25 8.49277 0.486888 8.82336 0.889799L8.91745 1.01558L10.3224 3.08063C10.3574 3.13195 10.4096 3.16781 10.4685 3.18253L10.5291 3.19H16C17.4625 3.19 18.6584 4.3317 18.745 5.77248L18.75 5.94V7.879L18.8853 7.99865L19.0192 8.13398L19.1443 8.27925C19.6261 8.87986 19.8322 9.65235 19.7187 10.4081L19.6837 10.5966L18.5726 15.5966C18.3057 16.7976 17.2767 17.6679 16.0627 17.7445L15.8881 17.75H2.66466C2.02425 17.75 1.41007 17.4956 0.957238 17.0428C0.549685 16.6352 0.302865 16.097 0.257576 15.5265L0.25 15.3353V3C0.25 1.53747 1.3917 0.341596 2.83248 0.255019L3 0.25H7.47054ZM7.60435 8.75C7.06033 8.75001 6.5841 9.10087 6.41708 9.6089L6.38414 9.72884L5.0218 15.8592C4.99725 15.9696 4.96535 16.0769 4.9267 16.1806L4.897 16.25H15.8881C16.4321 16.25 16.9083 15.8991 17.0754 15.3911L17.1083 15.2712L18.2194 10.2712C18.3017 9.90104 18.2115 9.51359 17.9742 9.21784C17.8853 9.10693 17.7792 9.01342 17.6614 8.93984L17.5399 8.87301C17.4149 8.81302 17.2799 8.77382 17.1402 8.75797L16.9992 8.75H7.60435ZM3 1.75H7.47054L7.53122 1.75747C7.5901 1.77219 7.64237 1.80806 7.67728 1.85937L9.08227 3.92442L9.17636 4.0502C9.50694 4.4531 10.0025 4.69 10.5291 4.69H16L16.1278 4.69645C16.7581 4.76047 17.25 5.29279 17.25 5.94V7.262L17.1908 7.25667C17.1273 7.25224 17.0634 7.25 16.9992 7.25H7.60434L7.42971 7.2555C6.2157 7.33215 5.18675 8.20242 4.91986 9.40344L3.55752 15.5338L3.52543 15.6448C3.39656 16.0039 3.05437 16.25 2.66466 16.25C2.42208 16.25 2.18943 16.1536 2.0179 15.9821C1.84637 15.8106 1.75 15.5779 1.75 15.3353V3L1.75645 2.87219C1.82047 2.24187 2.35279 1.75 3 1.75Z" fill="#434B74"/>
</svg>
