<svg width="20" height="20" viewBox="0 0 20 20" fill="none" xmlns="http://www.w3.org/2000/svg">
<path d="M7 17.75C6.58579 17.75 6.25 18.0858 6.25 18.5C6.25 18.9142 6.58579 19.25 7 19.25V17.75ZM13 19.25C13.4142 19.25 13.75 18.9142 13.75 18.5C13.75 18.0858 13.4142 17.75 13 17.75V19.25ZM15 3.75C14.5858 3.75 14.25 4.08579 14.25 4.5C14.25 4.91421 14.5858 5.25 15 5.25V3.75ZM5 5.25C5.41421 5.25 5.75 4.91421 5.75 4.5C5.75 4.08579 5.41421 3.75 5 3.75V5.25ZM11 13.75H9V15.25H11V13.75ZM9 13.75C7.20521 13.75 5.75 12.2948 5.75 10.5H4.25C4.25 13.1232 6.37679 15.25 9 15.25V13.75ZM5.75 10.5V2.5H4.25V10.5H5.75ZM5.75 2.5C5.75 2.36221 5.86221 2.25 6 2.25V0.75C5.03379 0.75 4.25 1.53379 4.25 2.5H5.75ZM6 2.25H14V0.75H6V2.25ZM14 2.25C14.1378 2.25 14.25 2.36221 14.25 2.5H15.75C15.75 1.53379 14.9662 0.75 14 0.75V2.25ZM14.25 2.5V10.5H15.75V2.5H14.25ZM14.25 10.5C14.25 12.2948 12.7948 13.75 11 13.75V15.25C13.6232 15.25 15.75 13.1232 15.75 10.5H14.25ZM9.25 14.5V18.5H10.75V14.5H9.25ZM7 19.25H13V17.75H7V19.25ZM15 5.25H18V3.75H15V5.25ZM18 5.25C18.1378 5.25 18.25 5.36221 18.25 5.5H19.75C19.75 4.53379 18.9662 3.75 18 3.75V5.25ZM18.25 5.5V7.5H19.75V5.5H18.25ZM18.25 7.5C18.25 8.74279 17.2428 9.75 16 9.75V11.25C18.0712 11.25 19.75 9.57121 19.75 7.5H18.25ZM16 9.75H15V11.25H16V9.75ZM5 3.75H2V5.25H5V3.75ZM2 3.75C1.03379 3.75 0.25 4.53379 0.25 5.5H1.75C1.75 5.36221 1.86221 5.25 2 5.25V3.75ZM0.25 5.5V7.5H1.75V5.5H0.25ZM0.25 7.5C0.25 9.57121 1.92879 11.25 4 11.25V9.75C2.75721 9.75 1.75 8.74279 1.75 7.5H0.25ZM4 11.25H5V9.75H4V11.25Z" fill="#434B74"/>
</svg>
