
<svg width="21" height="21" viewBox="0 0 21 21" fill="none" xmlns="http://www.w3.org/2000/svg">
<path d="M20.0027 6.275V9.49634H20.0037C19.537 9.40215 19.0537 9.43357 18.6031 9.58738C17.7658 9.87367 17.1305 10.5647 16.9154 11.4231C16.7132 12.2142 16.8877 13.0544 17.3881 13.6996C17.8886 14.3447 18.659 14.7227 19.4755 14.7235C19.6529 14.7232 19.8298 14.7055 20.0037 14.6705V17.8918C20.0037 18.452 19.7813 18.9891 19.3852 19.3852C18.9891 19.7813 18.452 20.0038 17.8918 20.0037H14.6705V20.0047C14.7647 19.538 14.7333 19.0547 14.5795 18.6041C14.2932 17.7668 13.6021 17.1315 12.7437 16.9164C11.9526 16.7142 11.1125 16.8887 10.4673 17.3891C9.82209 17.8896 9.44418 18.66 9.44332 19.4765C9.44361 19.6539 9.46137 19.8308 9.49634 20.0047L6.276 20.0037C5.10994 20.0039 4.16446 19.0589 4.16412 17.8928V14.6715C3.99021 14.7065 3.81329 14.7242 3.6359 14.7245C2.81937 14.7237 2.049 14.3458 1.54854 13.7006C1.04808 13.0554 0.873619 12.2152 1.07583 11.4241C1.29086 10.5657 1.92617 9.87467 2.76354 9.58838C3.2141 9.43457 3.69743 9.40315 4.16412 9.49734H4.16312V6.276C4.16308 5.71588 4.38556 5.17869 4.78163 4.78263C5.17769 4.38657 5.71488 4.16408 6.275 4.16412H9.49634C9.46137 3.99021 9.44361 3.81329 9.44332 3.6359C9.44418 2.81937 9.82209 2.049 10.4673 1.54854C11.1125 1.04808 11.9526 0.873619 12.7437 1.07583C13.6018 1.29148 14.2926 1.92655 14.5795 2.76354C14.7333 3.2141 14.7647 3.69743 14.6705 4.16412H17.8918C18.452 4.16408 18.9891 4.38657 19.3852 4.78263C19.7813 5.17869 20.0037 5.71588 20.0037 6.276" stroke="#434B74" stroke-width="1.5" stroke-linecap="round" stroke-linejoin="round"/>
</svg>
